<?xml version="1.0" encoding="UTF-8"?>
<svg id="Layer_1" xmlns="http://www.w3.org/2000/svg" viewBox="0 0 69.49 60.28">
  <defs>
    <style>
      .cls-1 {
        fill: #ed1c24;
      }

      .cls-2 {
        fill: #39b54a;
      }

      .cls-3 {
        fill: #fbb040;
      }
    </style>
  </defs>
  <path class="cls-1" d="M34.74,26.43c-11.9-6.13-22.78-4.64-21.99,10.86.74,12.44,9.13,25.11,22.46,16.82,0,0,1.25,1.59,1.25,1.59-3.84,3.65-9.91,5.69-15.25,3.95-9.03-3.08-13.35-13.14-14.42-21.85-1.78-13.42,7.05-24.76,21.14-20.18,3.58,1.25,6.68,3.39,9.01,6.11,0,0-2.2,2.7-2.2,2.7h0Z"/>
  <path class="cls-1" d="M32.43,23.74c2.32-2.78,5.46-4.99,9.08-6.26,3.59-1.25,7.8-1.58,11.8-.15,3.97,1.4,7.4,4.83,8.81,8.62.82,1.87,1.19,3.8,1.44,5.69.19,1.9.18,3.77.01,5.6-.18,1.83-.47,3.63-.94,5.39-.43,1.77-1.07,3.49-1.83,5.17-1.51,3.23-3.48,6.46-6.44,8.94-1.47,1.23-3.19,2.23-5.04,2.84-1.86.6-3.81.81-5.7.63-1.89-.15-3.7-.72-5.33-1.5-1.64-.78-3.11-1.81-4.43-3.01l1.25-1.59c2.65,1.7,5.74,2.73,8.64,2.62,2.92-.08,5.56-1.35,7.56-3.37,1.99-2.06,3.46-4.75,4.55-7.65,1.02-2.81,1.64-5.88,1.76-8.87.09-2.99-.27-5.97-1.36-8.37-.22-.64-.62-1.12-.92-1.68-.41-.45-.73-.99-1.21-1.35-.85-.84-1.91-1.41-3.06-1.85-2.32-.84-5.12-.89-7.93-.34-2.84.5-5.63,1.7-8.45,3.16l-2.24-2.67Z"/>
  <path class="cls-2" d="M33.41,21.74c-2.51-1.4-3.28-4.13-3.69-6.67-.86-5.09,1.55-10.69,6.19-13.23,5.98-3.71,13.02-1.89,12.69,6.08-.29,5.17-2.82,10.35-7.47,12.79-2.3,1.16-5.19,2.18-7.72,1.03h0ZM34.32,19.89c3.22,1.11,6.99-4.08,8.37-6.58,1.08-2.09,2.65-7.62.09-8.83-4.47-.74-8.8,3.25-9.91,7.46-.72,2.51-.98,6.38,1.46,7.95h0Z"/>
  <path class="cls-3" d="M63.16,46.51c2.4,2.55,9.93,10.34,4.27,12.83-2.52.77-5.06.01-7.49-.5-6.82-1.7-13.45-4.25-19.6-7.6-4.13-2.17-8.08-4.61-12-7.06-7.79-5-15.99-10.11-21.9-17.41C3.87,23.45.61,20.12,0,15.73c0-4.66,5.92-3.27,8.73-2.36,2.25.71,4.4,1.61,6.5,2.62l-.38.93c-1.75-.6-12.57-4.08-12.42-1.33.98,3.55,3.95,6.35,6.33,9.14,3.05,3.4,6.35,6.25,10.08,8.85,13.11,8.86,26.58,18.14,41.8,22.71,1.88.54,4.28,1.3,6.09.94.37-.11.53-.19.62-.4.34-1.27-.52-2.78-1.14-4.04-1.07-1.95-2.4-3.82-3.8-5.62,0,0,.75-.66.75-.66h0Z"/>
</svg>